<svg width="115" height="36" viewBox="0 0 115 36" fill="none" xmlns="http://www.w3.org/2000/svg">
    <path
        d="M18 0C16.5964 0 15.2303 0.160642 13.9197 0.465194C7.25502 2.00937 2.00937 7.25502 0.465194 13.919C0.160642 15.2303 0 16.5964 0 18C0 27.9411 8.0589 36 18 36C19.4036 36 20.7697 35.8394 22.081 35.5348C28.745 33.9906 33.9906 28.7456 35.5355 22.0823C35.84 20.7711 36.0007 19.4043 36.0007 18C36.0007 8.0589 27.9411 0 18 0ZM18 29.2724C16.6714 29.2724 15.3969 29.0428 14.2135 28.6205C11.0341 27.4866 8.51406 24.9665 7.38019 21.7871C6.95783 20.6037 6.72825 19.3286 6.72825 18C6.72825 11.7744 11.7744 6.72758 18 6.72758C19.3286 6.72758 20.6031 6.95716 21.7865 7.37952C24.9659 8.51339 27.4866 11.0335 28.6205 14.2129C29.0428 15.3963 29.2724 16.6714 29.2724 18C29.2724 24.2256 24.2256 29.2724 18 29.2724Z"
        fill="url(#paint0_linear_4004_177)" />
    <path
        d="M18 10.735C13.9879 10.735 10.7349 13.988 10.7349 18C10.7349 22.0121 13.9879 25.2651 18 25.2651C22.012 25.2651 25.265 22.0121 25.265 18C25.265 13.988 22.0127 10.735 18 10.735ZM18 22.393C15.5743 22.393 13.6071 20.4264 13.6071 18C13.6071 15.5737 15.5743 13.6071 18 13.6071C20.4257 13.6071 22.3929 15.5737 22.3929 18C22.3929 20.4264 20.4264 22.393 18 22.393Z"
        fill="#FEFCFE" />
    <path
        d="M21.7865 7.37953C20.6031 6.95718 19.3286 6.72759 18 6.72759C11.7744 6.72759 6.72823 11.7744 6.72823 18C6.72823 19.3287 6.95782 20.6038 7.38017 21.7872C5.94175 21.2437 4.59302 20.3929 3.43506 19.235C1.91565 17.7155 0.925688 15.8675 0.465179 13.919C2.00936 7.25504 7.25501 2.00939 13.9197 0.46521C15.8675 0.925719 17.7155 1.91568 19.2349 3.43509C20.3922 4.59239 21.243 5.94111 21.7865 7.37953Z"
        fill="url(#paint1_linear_4004_177)" />
    <path
        d="M35.5355 22.0824C33.9906 28.7457 28.745 33.9907 22.081 35.5348C20.1332 35.0743 18.2851 34.0844 16.7657 32.565C15.6077 31.407 14.757 30.0583 14.2135 28.6205C15.3969 29.0429 16.6713 29.2725 18 29.2725C24.2256 29.2725 29.2724 24.2256 29.2724 18C29.2724 16.6714 29.0428 15.3963 28.6205 14.2129C30.0582 14.7564 31.4069 15.6071 32.5649 16.7651C34.0843 18.2845 35.0749 20.1339 35.5355 22.0824Z"
        fill="url(#paint2_linear_4004_177)" />
    <path
        d="M9.09638 30.6713C11.1769 30.6713 12.8635 28.9848 12.8635 26.9043C12.8635 24.8238 11.1769 23.1372 9.09638 23.1372C7.01589 23.1372 5.32932 24.8238 5.32932 26.9043C5.32932 28.9848 7.01589 30.6713 9.09638 30.6713Z"
        fill="url(#paint3_linear_4004_177)" />
    <path
        d="M26.9371 12.8306C29.0176 12.8306 30.7042 11.1441 30.7042 9.06358C30.7042 6.98308 29.0176 5.29651 26.9371 5.29651C24.8566 5.29651 23.17 6.98308 23.17 9.06358C23.17 11.1441 24.8566 12.8306 26.9371 12.8306Z"
        fill="url(#paint4_linear_4004_177)" />
    <path
        d="M114.76 14.6086V16.5973H108.489V14.6086H114.76ZM110.037 11.995H112.608V22.2365C112.608 22.5821 112.66 22.8473 112.765 23.0319C112.873 23.2119 113.015 23.335 113.191 23.4012C113.366 23.4675 113.56 23.5007 113.773 23.5007C113.934 23.5007 114.081 23.4888 114.213 23.4652C114.351 23.4415 114.455 23.4202 114.526 23.4012L114.959 25.4112C114.822 25.4585 114.625 25.5106 114.37 25.5674C114.119 25.6243 113.811 25.6574 113.446 25.6669C112.802 25.6858 112.222 25.5887 111.706 25.3757C111.19 25.1579 110.781 24.8217 110.478 24.3672C110.179 23.9126 110.033 23.3444 110.037 22.6626V11.995Z"
        fill="#D4D4D8" />
    <path
        d="M104.098 25.5177V14.6087H106.669V25.5177H104.098ZM105.391 13.0604C104.983 13.0604 104.633 12.9254 104.339 12.6555C104.046 12.3809 103.899 12.0518 103.899 11.6683C103.899 11.2801 104.046 10.951 104.339 10.6811C104.633 10.4065 104.983 10.2692 105.391 10.2692C105.803 10.2692 106.153 10.4065 106.442 10.6811C106.735 10.951 106.882 11.2801 106.882 11.6683C106.882 12.0518 106.735 12.3809 106.442 12.6555C106.153 12.9254 105.803 13.0604 105.391 13.0604Z"
        fill="#D4D4D8" />
    <path
        d="M91.614 25.5177V10.9723H94.185V16.4126H94.2915C94.4241 16.1475 94.6111 15.8658 94.8526 15.5675C95.0941 15.2644 95.4208 15.0064 95.8327 14.7933C96.2446 14.5755 96.7702 14.4666 97.4094 14.4666C98.2522 14.4666 99.0122 14.682 99.6892 15.1129C100.371 15.5391 100.911 16.1712 101.309 17.0092C101.711 17.8426 101.912 18.8653 101.912 20.0774C101.912 21.2753 101.716 22.2933 101.323 23.1314C100.93 23.9694 100.395 24.6087 99.7176 25.049C99.0406 25.4893 98.2735 25.7095 97.4165 25.7095C96.7915 25.7095 96.273 25.6053 95.8611 25.397C95.4492 25.1887 95.1177 24.9377 94.8668 24.6442C94.6206 24.3459 94.4288 24.0641 94.2915 23.799H94.1424V25.5177H91.614ZM94.1353 20.0632C94.1353 20.7687 94.2347 21.3866 94.4336 21.9169C94.6372 22.4472 94.9283 22.8615 95.3071 23.1598C95.6907 23.4534 96.1547 23.6001 96.6992 23.6001C97.2674 23.6001 97.7432 23.4486 98.1267 23.1456C98.5103 22.8378 98.7991 22.4188 98.9932 21.8885C99.1921 21.3534 99.2915 20.745 99.2915 20.0632C99.2915 19.3861 99.1944 18.7848 99.0003 18.2592C98.8062 17.7337 98.5174 17.3217 98.1338 17.0234C97.7503 16.7251 97.2721 16.576 96.6992 16.576C96.1499 16.576 95.6836 16.7204 95.3 17.0092C94.9165 17.298 94.6253 17.7029 94.4265 18.2237C94.2323 18.7445 94.1353 19.3577 94.1353 20.0632Z"
        fill="#D4D4D8" />
    <path
        d="M83.5706 25.5177V14.6086H86.0635V16.4268H86.1772C86.376 15.7971 86.7169 15.3118 87.1999 14.9709C87.6876 14.6252 88.2439 14.4524 88.8689 14.4524C89.011 14.4524 89.1696 14.4595 89.3448 14.4737C89.5247 14.4832 89.6738 14.4997 89.7922 14.5234V16.8885C89.6833 16.8506 89.5105 16.8174 89.2737 16.789C89.0417 16.7559 88.8168 16.7393 88.599 16.7393C88.1303 16.7393 87.7089 16.8411 87.3348 17.0447C86.9655 17.2436 86.6743 17.5206 86.4612 17.8757C86.2482 18.2308 86.1416 18.6404 86.1416 19.1044V25.5177H83.5706Z"
        fill="#D4D4D8" />
    <path
        d="M76.1612 25.7308C75.0958 25.7308 74.1725 25.4964 73.3913 25.0276C72.61 24.5589 72.004 23.9031 71.5731 23.0603C71.147 22.2175 70.9339 21.2327 70.9339 20.1058C70.9339 18.9789 71.147 17.9916 71.5731 17.1441C72.004 16.2966 72.61 15.6384 73.3913 15.1697C74.1725 14.7009 75.0958 14.4666 76.1612 14.4666C77.2265 14.4666 78.1498 14.7009 78.9311 15.1697C79.7123 15.6384 80.316 16.2966 80.7421 17.1441C81.173 17.9916 81.3884 18.9789 81.3884 20.1058C81.3884 21.2327 81.173 22.2175 80.7421 23.0603C80.316 23.9031 79.7123 24.5589 78.9311 25.0276C78.1498 25.4964 77.2265 25.7308 76.1612 25.7308ZM76.1754 23.6711C76.753 23.6711 77.236 23.5125 77.6242 23.1952C78.0125 22.8733 78.3013 22.4424 78.4907 21.9026C78.6848 21.3629 78.7819 20.7615 78.7819 20.0987C78.7819 19.431 78.6848 18.8273 78.4907 18.2876C78.3013 17.7431 78.0125 17.3098 77.6242 16.9879C77.236 16.6659 76.753 16.5049 76.1754 16.5049C75.5835 16.5049 75.0911 16.6659 74.6981 16.9879C74.3098 17.3098 74.0187 17.7431 73.8245 18.2876C73.6351 18.8273 73.5404 19.431 73.5404 20.0987C73.5404 20.7615 73.6351 21.3629 73.8245 21.9026C74.0187 22.4424 74.3098 22.8733 74.6981 23.1952C75.0911 23.5125 75.5835 23.6711 76.1754 23.6711Z"
        fill="#D4D4D8" />
    <path
        d="M67.1857 25.674C66.7548 25.674 66.3855 25.5225 66.0777 25.2195C65.77 24.9165 65.6185 24.5471 65.6232 24.1115C65.6185 23.6854 65.77 23.3208 66.0777 23.0178C66.3855 22.7147 66.7548 22.5632 67.1857 22.5632C67.6024 22.5632 67.9646 22.7147 68.2723 23.0178C68.5848 23.3208 68.7435 23.6854 68.7482 24.1115C68.7435 24.4004 68.6677 24.6631 68.5209 24.8999C68.3789 25.1366 68.1895 25.326 67.9527 25.4681C67.7207 25.6054 67.465 25.674 67.1857 25.674Z"
        fill="#D4D4D8" />
    <path
        d="M55.9854 19.1256V25.5177H53.4144V14.6086H55.8718V16.4623H55.9996C56.2505 15.8515 56.6506 15.3662 57.1999 15.0063C57.7539 14.6465 58.438 14.4666 59.2524 14.4666C60.0053 14.4666 60.6611 14.6275 61.2198 14.9495C61.7832 15.2715 62.2188 15.7379 62.5266 16.3487C62.8391 16.9594 62.993 17.7005 62.9882 18.5717V25.5177H60.4172V18.9694C60.4172 18.2402 60.2278 17.6697 59.849 17.2577C59.475 16.8458 58.9565 16.6398 58.2936 16.6398C57.8438 16.6398 57.4437 16.7393 57.0933 16.9381C56.7477 17.1323 56.4754 17.414 56.2766 17.7833C56.0825 18.1526 55.9854 18.6001 55.9854 19.1256Z"
        fill="#D4D4D8" />
    <path
        d="M48.1995 25.5177V14.6087H50.7706V25.5177H48.1995ZM49.4921 13.0604C49.085 13.0604 48.7346 12.9254 48.441 12.6555C48.1475 12.3809 48.0007 12.0518 48.0007 11.6683C48.0007 11.2801 48.1475 10.951 48.441 10.6811C48.7346 10.4065 49.085 10.2692 49.4921 10.2692C49.9041 10.2692 50.2545 10.4065 50.5433 10.6811C50.8368 10.951 50.9836 11.2801 50.9836 11.6683C50.9836 12.0518 50.8368 12.3809 50.5433 12.6555C50.2545 12.9254 49.9041 13.0604 49.4921 13.0604Z"
        fill="#D4D4D8" />
    <defs>
        <linearGradient id="paint0_linear_4004_177" x1="30.5556" y1="6.13588" x2="5.83534" y2="29.4953"
            gradientUnits="userSpaceOnUse">
            <stop stop-color="#F38856" />
            <stop offset="0.23" stop-color="#F0625C" />
            <stop offset="1" stop-color="#5C3DAB" />
        </linearGradient>
        <linearGradient id="paint1_linear_4004_177" x1="16.8608" y1="3.05156" x2="2.79985" y2="17.0368"
            gradientUnits="userSpaceOnUse">
            <stop stop-color="#F67986" />
            <stop offset="1" stop-color="#8951BA" />
        </linearGradient>
        <linearGradient id="paint2_linear_4004_177" x1="32.9424" y1="19.2196" x2="18.8815" y2="33.2055"
            gradientUnits="userSpaceOnUse">
            <stop stop-color="#F67986" />
            <stop offset="1" stop-color="#8951BA" />
        </linearGradient>
        <linearGradient id="paint3_linear_4004_177" x1="11.8467" y1="24.3306" x2="6.34538" y2="29.4779"
            gradientUnits="userSpaceOnUse">
            <stop stop-color="#A267B9" />
            <stop offset="1" stop-color="#704BB4" />
        </linearGradient>
        <linearGradient id="paint4_linear_4004_177" x1="29.2269" y1="6.92034" x2="25.4712" y2="10.4351"
            gradientUnits="userSpaceOnUse">
            <stop stop-color="#F7A8A5" />
            <stop offset="0.97" stop-color="#D074C4" />
            <stop offset="1" stop-color="#CF76A9" />
        </linearGradient>
    </defs>
</svg>